HIERARCHY
ROOT Hips
{
  OFFSET 40.9192 92.6879 18.85
  CHANNELS 6 Xposition Yposition Zposition Zrotation Xrotation Yrotation
  JOINT LeftUpLeg
  {
    OFFSET 8.64259 1.95398 -2.38835
    CHANNELS 3 Zrotation Xrotation Yrotation
    JOINT LeftLeg
    {
      OFFSET 43.7702 0 0
      CHANNELS 3 Zrotation Xrotation Yrotation
      JOINT LeftFoot
      {
        OFFSET 40.6238 0 0
        CHANNELS 3 Zrotation Xrotation Yrotation
        JOINT LeftToeBase
        {
          OFFSET 12.7242 0 0
          CHANNELS 3 Zrotation Xrotation Yrotation
          End Site
          {
            OFFSET 0 0 0
          }
        }
      }
    }
  }
  JOINT RightUpLeg
  {
    OFFSET -8.2249 1.95398 -2.59336
    CHANNELS 3 Zrotation Xrotation Yrotation
    JOINT RightLeg
    {
      OFFSET 43.5653 0 0
      CHANNELS 3 Zrotation Xrotation Yrotation
      JOINT RightFoot
      {
        OFFSET 40.6238 0 0
        CHANNELS 3 Zrotation Xrotation Yrotation
        JOINT RightToeBase
        {
          OFFSET 12.7242 0 0
          CHANNELS 3 Zrotation Xrotation Yrotation
          End Site
          {
            OFFSET 0 0 0
          }
        }
      }
    }
  }
  JOINT Spine
  {
    OFFSET 0.165834 0.87714 6.61349
    CHANNELS 3 Zrotation Xrotation Yrotation
    JOINT Spine1
    {
      OFFSET 7.38963 1.71661e-005 0
      CHANNELS 3 Zrotation Xrotation Yrotation
      JOINT Spine2
      {
        OFFSET 11.9445 1.14441e-005 0
        CHANNELS 3 Zrotation Xrotation Yrotation
        JOINT Spine3
        {
          OFFSET 14.7254 4.19617e-005 0
          CHANNELS 3 Zrotation Xrotation Yrotation
          JOINT Spine4
          {
            OFFSET 10.9679 0 0
            CHANNELS 3 Zrotation Xrotation Yrotation
            JOINT RightShoulder
            {
              OFFSET 2.46616 -1.6653 3.69651
              CHANNELS 3 Zrotation Xrotation Yrotation
              JOINT RightArm
              {
                OFFSET 13.0012 0 0
                CHANNELS 3 Zrotation Xrotation Yrotation
                JOINT RightForeArm
                {
                  OFFSET 28.7848 1.52588e-005 0
                  CHANNELS 3 Zrotation Xrotation Yrotation
                  JOINT RightHand
                  {
                    OFFSET 26.5688 1.52588e-005 0
                    CHANNELS 3 Zrotation Xrotation Yrotation
                    End Site
                    {
                      OFFSET 0 0 0
                    }
                  }
                }
              }
            }
            JOINT LeftShoulder
            {
              OFFSET 2.38034 -1.29275 -3.7523
              CHANNELS 3 Zrotation Xrotation Yrotation
              JOINT LeftArm
              {
                OFFSET 16.3182 6.10351e-005 0
                CHANNELS 3 Zrotation Xrotation Yrotation
                JOINT LeftForeArm
                {
                  OFFSET 27.0901 0 0
                  CHANNELS 3 Zrotation Xrotation Yrotation
                  JOINT LeftHand
                  {
                    OFFSET 24.5451 1.52588e-005 0
                    CHANNELS 3 Zrotation Xrotation Yrotation
                    End Site
                    {
                      OFFSET 0 0 0
                    }
                  }
                }
              }
            }
            JOINT Neck
            {
              OFFSET 5.0226 -0.0266342 0
              CHANNELS 3 Zrotation Xrotation Yrotation
              JOINT Head
              {
                OFFSET 6.69363 2.86102e-005 0
                CHANNELS 3 Zrotation Xrotation Yrotation
                End Site
                {
                  OFFSET 0 0 0
                }
              }
            }
          }
        }
      }
    }
  }
}
MOTION
Frames:	12
Frame Time:	0.0416667
-54.647 88.9059 -158.212 -114.374 -80.7172 -121.631 -171.038 11.4187 109.305 -25.4804 15.62 5.01475 45.1389 -8.46969 -3.81428 27.1461 -2.76983 10.9354 -177.326 22.9508 78.041 -56.3993 -9.18176 -11.6669 77.7969 -9.04518 -4.018 46.7305 0.805868 -0.992299 -0.042045 7.81308 -89.7047 11.2472 0.0537996 0.582575 -0.423858 0.079386 0.579635 -22.958 -0.123776 0.571813 -2.94536 -0.123777 0.571803 93.4781 -46.2159 -96.139 26.0875 -7.35969 0.0142713 -10.2708 -22.9091 -48.0846 -16.7671 -1.49643 4.74374 -96.8173 -49.4561 68.461 -14.8716 2.53367 9.47705 6.67892 7.71791 -33.7084 10.2651 0.794699 3.61151 6.28945 3.29357 4.24484 2.60996 2.97005 6.69306 
-56.8258 89.3971 -158.417 -109.877 -80.5791 -117.797 -170.994 11.3339 108.015 -24.8777 16.1686 4.71503 49.2363 -5.93261 -2.34286 28.1647 -1.67191 10.0154 -176.822 23.0343 79.0124 -55.7466 -8.72795 -11.6281 78.3095 -9.33396 -4.10637 45.4294 0.769369 -0.776024 -0.0406451 7.78984 -89.6798 11.2935 0.0682888 0.630787 -0.377589 0.0959784 0.627158 -22.9115 -0.124446 0.622152 -2.89889 -0.124443 0.622144 93.1001 -46.2348 -96.7465 25.3108 -7.84318 0.571405 -9.77168 -22.5998 -48.3061 -16.4872 -1.33179 3.78054 -96.7451 -49.95 68.7268 -14.3193 2.72937 9.38658 6.93475 7.77492 -35.0472 10.745 0.908716 4.30736 6.28212 3.38519 4.71962 2.96218 2.96944 6.22592 
-58.7079 90.1529 -158.66 -104.412 -80.4953 -112.9 -170.744 11.5494 106.277 -23.8016 14.316 3.81928 51.0744 -4.67147 -1.84878 30.3679 0.53699 8.57389 -176.715 23.0194 79.7727 -54.2183 -9.07203 -11.5692 78.1448 -9.23168 -4.07671 44.4532 0.781152 -0.03202 -0.0135915 7.76838 -89.6707 11.3363 0.12651 0.643064 -0.334782 0.154691 0.636862 -22.8687 -0.0725977 0.651348 -2.85602 -0.0726112 0.651342 92.9617 -45.9474 -97.0255 24.7567 -7.91194 0.632838 -9.72518 -22.6132 -48.4486 -16.1937 -1.34357 3.96755 -97.0985 -50.1613 68.278 -14.1561 2.23611 9.49766 7.86049 8.14168 -36.6589 10.9012 0.900776 4.13393 6.5559 3.47713 4.80368 3.33565 3.07397 6.50906 
-60.3321 90.958 -158.804 -97.5785 -80.7363 -106.384 -170.368 12.5066 104.366 -23.7332 12.1413 2.57825 53.4059 -3.23772 -2.34635 32.747 2.64463 10.119 -176.95 23.0613 80.4996 -52.2262 -9.6928 -11.328 78.0171 -9.13552 -4.04919 42.9724 0.764617 0.934742 -0.00423179 7.70028 -89.6877 11.4726 0.137603 0.608216 -0.198516 0.164236 0.601562 -22.7325 -0.0515413 0.621445 -2.7199 -0.0515466 0.621452 92.8844 -46.4489 -97.0529 23.2083 -7.66334 0.584637 -9.82862 -23.4464 -48.5055 -15.5976 -1.47709 5.11516 -97.3285 -50.2263 67.964 -14.1462 2.02465 9.45355 8.08116 7.76568 -37.9389 10.9883 0.9025 4.09273 7.17529 3.6143 4.81868 2.8988 3.16989 6.7475 
-61.6951 91.7361 -158.935 -94.4288 -80.8012 -103.319 -169.715 12.6817 102.47 -23.3394 10.6261 1.14024 55.5888 -1.61642 -0.386194 33.9848 3.81766 9.70127 -177.209 22.4094 81.3423 -50.0738 -10.2273 -11.2387 77.3877 -8.77451 -3.94309 42.2419 0.75708 1.57755 0.00869205 7.70408 -89.7046 11.465 0.155403 0.572582 -0.206097 0.180451 0.56518 -22.7402 -0.0238679 0.592808 -2.72759 -0.0238672 0.5928 93.062 -46.6561 -96.7275 22.3722 -7.56016 0.216768 -9.6208 -23.9278 -47.7598 -14.9825 -1.39124 4.78483 -97.1096 -50.0403 68.2226 -14.3122 2.24386 8.94285 7.64924 7.02137 -38.683 11.3357 0.866485 3.57927 7.5322 3.6628 4.4915 3.12516 3.28814 6.96233 
-62.8777 92.5443 -159.118 -92.9343 -81.1088 -101.755 -169.128 12.8885 100.593 -23.6648 6.43699 -0.110089 58.1468 -0.025496 -3.10527 34.5765 4.34703 10.6801 -177.658 21.3667 82.1336 -47.4519 -10.6484 -10.9854 76.7252 -8.44212 -3.84848 41.0864 0.710194 2.19222 -0.015827 7.71754 -89.7422 11.4384 0.0889636 0.504489 -0.232617 0.111086 0.500087 -22.767 -0.0667667 0.507911 -2.75435 -0.0667629 0.507907 92.9554 -46.1838 -96.9899 22.3669 -7.27118 0.530341 -9.11241 -23.9904 -47.1425 -14.8662 -1.41643 5.0204 -97.1329 -50.0247 68.1833 -14.2628 2.39542 8.80897 8.12075 7.15889 -40.1578 11.2606 0.855157 3.52876 7.28598 3.59331 4.69334 3.62825 3.19847 6.60517 
-63.8839 93.3142 -159.246 -93.0844 -81.4361 -101.876 -168.904 12.818 98.3569 -24.2936 4.7349 -1.20011 59.6045 0.995319 -2.14437 35.3053 5.0417 10.234 -178.09 20.074 82.7661 -44.9206 -11.0196 -10.7793 75.9024 -8.06688 -3.7419 39.8087 0.631913 2.52523 -0.0186521 7.74361 -89.7937 11.3863 0.0591755 0.404915 -0.284699 0.0769407 0.401903 -22.8193 -0.0652584 0.403977 -2.80671 -0.0652538 0.403968 92.9788 -45.816 -97.0233 22.1971 -6.71781 0.707848 -8.89977 -23.8877 -46.3132 -14.0739 -1.4103 5.36225 -97.7496 -50.511 67.4452 -13.6948 2.37302 8.66876 8.54189 7.22753 -41.4012 11.5626 0.866327 3.44649 7.38476 3.41216 5.40771 3.41202 2.83759 6.05878 
-64.7447 93.9931 -159.343 -93.9035 -82.2032 -102.412 -168.783 12.9504 96.3487 -25.2736 3.94047 -2.12645 61.3269 2.21434 -1.8427 35.6823 5.39253 10.9991 -178.799 18.7407 83.4925 -42.2629 -10.8516 -10.2932 75.0202 -7.6045 -3.59056 38.7353 0.564553 2.97119 -0.0564253 7.74701 -89.816 11.3798 -0.0263795 0.369148 -0.291209 -0.0100964 0.369939 -22.826 -0.136109 0.344152 -2.81333 -0.136092 0.344157 93.0717 -46.1643 -96.8057 21.8855 -6.28767 0.976693 -8.38032 -23.5352 -45.6739 -13.7306 -1.42344 5.65531 -97.7955 -50.1589 67.261 -13.6199 2.24778 8.58776 9.335 7.66365 -42.6767 11.8384 0.915206 3.68467 6.98111 3.21588 4.89719 3.57046 2.77026 6.17547 
-65.5017 94.6538 -159.385 -95.2548 -82.6789 -103.341 -168.677 12.8875 94.527 -26.3618 3.59517 -2.97998 63.4248 3.63859 -1.20147 35.9947 5.68857 10.5463 -179.132 17.3344 84.3327 -39.7242 -11.1867 -9.96196 73.5833 -7.01799 -3.40695 38.2234 0.504355 1.78106 -0.0843036 7.74713 -89.8607 11.3796 -0.102684 0.287713 -0.291362 -0.0899248 0.291948 -22.8264 -0.1844 0.243549 -2.81371 -0.184412 0.243542 92.9283 -45.9926 -97.0708 22.168 -5.63686 1.62476 -8.72946 -23.689 -45.3077 -12.9181 -1.34501 5.47273 -97.8965 -50.125 67.1025 -13.4787 2.25192 8.53794 9.40205 7.41582 -43.5457 12.4341 0.908776 3.30947 6.34255 3.00906 4.62571 3.9516 2.64636 5.97699 
-66.2217 95.1294 -159.486 -98.4612 -83.1313 -106.268 -168.684 12.5226 92.7378 -27.1407 4.65698 -3.72336 64.3807 4.50649 -0.0674577 37.5312 7.14393 10.8776 -179.458 15.827 85.0208 -37.3995 -10.1534 -9.64792 73.6868 -6.97748 -3.38091 36.1049 0.368099 3.34891 -0.113316 7.76509 -89.8766 11.3438 -0.167942 0.262489 -0.327166 -0.156226 0.269609 -22.8623 -0.23907 0.199876 -2.84962 -0.239068 0.199875 93.1168 -46.1086 -96.744 22.1325 -5.39003 1.87417 -8.58753 -23.4499 -44.6946 -12.2266 -1.29458 5.45389 -97.6499 -49.9226 67.394 -13.6593 2.31279 8.24653 9.03232 6.76888 -44.0563 11.9339 0.823729 2.90448 6.11529 2.9528 4.12511 3.89481 2.68815 6.07113 
-66.8444 95.5747 -159.513 -101.649 -83.9128 -108.886 -168.461 12.149 91.4655 -27.3319 6.90345 -4.5089 65.1518 5.42624 1.65853 37.4781 7.08572 10.566 179.782 14.5123 85.6734 -35.1968 -10.295 -8.97857 73.2202 -6.64852 -3.25175 34.7869 0.252588 3.32247 -0.160284 7.75627 -89.9144 11.3599 -0.278931 0.198563 -0.310991 -0.269932 0.210637 -22.8464 -0.325715 0.105548 -2.8337 -0.325719 0.105545 92.9754 -45.8401 -97.0246 22.7988 -4.89186 2.52446 -7.80769 -22.6217 -43.7867 -12.313 -1.33216 5.78043 -97.7505 -49.5467 67.12 -13.8152 2.33762 8.20523 8.69879 6.12357 -44.7077 11.5351 0.792605 2.86088 6.04033 2.67567 3.52058 3.47405 2.49888 6.10927 
-67.3858 95.9512 -159.478 -105.747 -84.4641 -112.371 -168.384 11.4981 90.5317 -26.9023 9.44109 -5.09815 65.1391 5.80391 3.59512 37.5214 7.12321 10.4486 179.051 13.1648 86.2475 -33.1475 -11.0773 -8.34023 72.3598 -6.16971 -3.06272 34.5067 0.24661 2.61135 -0.179106 7.76213 -89.927 11.354 -0.322329 0.177583 -0.316886 -0.314204 0.191589 -22.8523 -0.360801 0.0724906 -2.8397 -0.360798 0.0724961 93.4111 -46.9667 -96.1104 22.1354 -4.60233 2.46036 -7.13847 -21.7228 -42.8783 -11.0799 -1.35088 6.8786 -97.7191 -49.0551 66.9992 -13.6782 2.83784 7.77915 8.22829 5.72575 -44.8651 11.3337 0.757582 2.67654 5.68879 2.63004 2.39963 3.57053 2.67831 6.47115 
